<?xml version="1.0" encoding="UTF-8" standalone="no"?>
<!DOCTYPE svg PUBLIC "-//W3C//DTD SVG 1.1//EN" "http://www.w3.org/Graphics/SVG/1.1/DTD/svg11.dtd">
<svg width="100%" height="100%" viewBox="0 0 1161 772" version="1.1" xmlns="http://www.w3.org/2000/svg" xmlns:xlink="http://www.w3.org/1999/xlink" xml:space="preserve" xmlns:serif="http://www.serif.com/" style="fill-rule:evenodd;clip-rule:evenodd;stroke-linejoin:round;stroke-miterlimit:2;">
    <g id="Artboard1" transform="matrix(0.928517,0,0,0.922779,25.6174,25.7177)">
        <rect x="-27.59" y="-27.87" width="1249.79" height="836.53" style="fill:none;"/>
        <clipPath id="_clip1">
            <rect x="-27.59" y="-27.87" width="1249.79" height="836.53"/>
        </clipPath>
        <g clip-path="url(#_clip1)">
            <g transform="matrix(1.07699,0,0,1.08368,-27.5642,-28.9233)">
                <path d="M1160,772L0,772L0,0L1160,0L1160,772Z" style="fill:rgb(45,72,129);fill-rule:nonzero;"/>
                <path d="M375.378,666.407C193.83,666.407 46.657,519.234 46.657,337.686C46.657,156.139 193.83,8.967 375.378,8.967C489.199,8.967 589.512,66.82 648.513,154.72L435.476,154.72C423.672,154.72 414.104,164.289 414.104,176.092L414.104,614.037C414.104,614.199 414.106,614.359 414.109,614.519L414.104,616.446C415.394,626.416 421.654,631.62 427.342,633.807C429.85,634.84 432.596,635.409 435.476,635.409L514.909,635.409C472.556,655.293 425.263,666.407 375.378,666.407Z" style="fill:rgb(45,72,129);"/>
                <g transform="matrix(1.29784,0,0,1.29784,-185.827,-87.335)">
                    <path d="M744.68,635.409L435.476,635.409C423.672,635.409 414.104,625.841 414.104,614.037L414.104,176.092C414.104,164.289 423.672,154.72 435.476,154.72L744.68,154.72C756.483,154.72 766.052,164.289 766.052,176.092L766.052,614.037C766.052,625.841 756.483,635.409 744.68,635.409Z" style="fill:rgb(201,103,39);fill-rule:nonzero;"/>
                </g>
                <g transform="matrix(1.29784,0,0,1.29784,-185.827,-87.335)">
                    <path d="M737.379,610.371L442.776,610.371C439.67,610.371 437.152,607.853 437.152,604.747L437.152,198.265C437.152,195.159 439.67,192.641 442.776,192.641L737.379,192.641C740.485,192.641 743.003,195.159 743.003,198.265L743.003,604.747C743.003,607.853 740.485,610.371 737.379,610.371Z" style="fill:white;fill-rule:nonzero;"/>
                </g>
                <g transform="matrix(1.29784,0,0,1.29784,-185.827,-87.335)">
                    <path d="M427.342,633.807C421.654,631.62 415.394,626.416 414.104,616.446L414.109,614.519C414.302,623.235 419.713,630.665 427.342,633.807Z" style="fill:url(#_Radial2);"/>
                </g>
                <g transform="matrix(1.29784,0,0,1.29784,-185.827,-87.335)">
                    <path d="M433.687,635.096C431.927,635.096 429.683,634.707 427.342,633.807C419.713,630.665 414.302,623.235 414.109,614.519L415.319,176.784L437.152,206.74L437.152,604.747C437.152,607.853 439.67,610.371 442.776,610.371L731.341,610.371L749.015,634.62L435.476,634.932C434.965,635.039 434.361,635.096 433.687,635.096Z" style="fill:rgb(201,103,39);fill-rule:nonzero;"/>
                </g>
                <g transform="matrix(1.29784,0,0,1.29784,-185.827,-87.335)">
                    <path d="M731.341,610.371L442.776,610.371C439.67,610.371 437.152,607.853 437.152,604.747L437.152,206.74L478.123,262.952L455.467,262.952L455.467,334.728L527.244,334.728L527.244,330.346L731.341,610.371ZM455.467,479.721L455.467,551.497L527.244,551.497L527.244,499.588L552.826,478.114L544.009,475.719L527.244,488.047L527.244,479.721L455.467,479.721ZM455.467,371.336L455.467,443.112L527.244,443.112L527.244,399.732L552.826,378.257L544.009,375.862L527.244,388.191L527.244,371.336L455.467,371.336ZM524.67,548.924L458.04,548.924L458.04,482.295L524.67,482.295L524.67,489.94L492.811,513.367L479.039,499.384L465.876,508.19L492.246,528.966L524.67,501.749L524.67,548.924ZM524.67,440.538L458.04,440.538L458.04,373.91L524.67,373.91L524.67,390.083L492.811,413.51L479.039,399.528L465.876,408.333L492.246,429.11L524.67,401.892L524.67,440.538ZM524.67,332.154L458.04,332.154L458.04,265.525L479.999,265.525L495.109,286.257L487.581,291.792L473.809,277.81L460.646,286.616L487.015,307.392L501.594,295.154L524.67,326.815L524.67,332.154Z" style="fill:rgb(245,245,245);fill-rule:nonzero;"/>
                </g>
                <g transform="matrix(1.29784,0,0,1.29784,-185.827,-87.335)">
                    <path d="M458.04,332.154L524.67,332.154L524.67,265.525L458.04,265.525L458.04,332.154ZM527.244,334.728L455.467,334.728L455.467,262.952L527.244,262.952L527.244,334.728Z" style="fill:rgb(21,62,73);fill-rule:nonzero;"/>
                </g>
                <g transform="matrix(1.29784,0,0,1.29784,-185.827,-87.335)">
                    <path d="M458.04,440.538L524.67,440.538L524.67,373.91L458.04,373.91L458.04,440.538ZM527.244,443.112L455.467,443.112L455.467,371.336L527.244,371.336L527.244,443.112Z" style="fill:rgb(21,62,73);fill-rule:nonzero;"/>
                </g>
                <g transform="matrix(1.29784,0,0,1.29784,-185.827,-87.335)">
                    <path d="M458.04,548.924L524.67,548.924L524.67,482.295L458.04,482.295L458.04,548.924ZM527.244,551.497L455.467,551.497L455.467,479.721L527.244,479.721L527.244,551.497Z" style="fill:rgb(21,62,73);fill-rule:nonzero;"/>
                </g>
                <g transform="matrix(1.29784,0,0,1.29784,-185.827,-87.335)">
                    <rect x="565.433" y="268.852" width="147.847" height="7.362" style="fill:rgb(230,230,230);fill-rule:nonzero;"/>
                </g>
                <g transform="matrix(1.29784,0,0,1.29784,-185.827,-87.335)">
                    <rect x="565.433" y="291.478" width="147.847" height="7.362" style="fill:rgb(230,230,230);fill-rule:nonzero;"/>
                </g>
                <g transform="matrix(1.29784,0,0,1.29784,-185.827,-87.335)">
                    <rect x="565.433" y="314.104" width="147.847" height="7.361" style="fill:rgb(230,230,230);fill-rule:nonzero;"/>
                </g>
                <g transform="matrix(1.29784,0,0,1.29784,-185.827,-87.335)">
                    <rect x="565.433" y="379.633" width="147.847" height="7.362" style="fill:rgb(230,230,230);fill-rule:nonzero;"/>
                </g>
                <g transform="matrix(1.29784,0,0,1.29784,-185.827,-87.335)">
                    <rect x="565.433" y="402.259" width="147.847" height="7.362" style="fill:rgb(230,230,230);fill-rule:nonzero;"/>
                </g>
                <g transform="matrix(1.29784,0,0,1.29784,-185.827,-87.335)">
                    <rect x="565.433" y="424.885" width="147.847" height="7.362" style="fill:rgb(230,230,230);fill-rule:nonzero;"/>
                </g>
                <g transform="matrix(1.29784,0,0,1.29784,-185.827,-87.335)">
                    <rect x="565.433" y="483.714" width="147.847" height="7.362" style="fill:rgb(230,230,230);fill-rule:nonzero;"/>
                </g>
                <g transform="matrix(1.29784,0,0,1.29784,-185.827,-87.335)">
                    <rect x="565.433" y="506.34" width="147.847" height="7.363" style="fill:rgb(230,230,230);fill-rule:nonzero;"/>
                </g>
                <g transform="matrix(1.29784,0,0,1.29784,-185.827,-87.335)">
                    <rect x="565.433" y="528.966" width="147.847" height="7.362" style="fill:rgb(230,230,230);fill-rule:nonzero;"/>
                </g>
                <g transform="matrix(1.29784,0,0,1.29784,-185.827,-87.335)">
                    <path d="M501.594,295.154L495.109,286.257L523.302,265.525L524.67,265.525L524.67,275.784L501.594,295.154ZM527.244,273.623L527.244,262.952L526.802,262.952L538.779,254.144L547.596,256.539L527.244,273.623Z" style="fill:rgb(199,199,199);fill-rule:nonzero;"/>
                </g>
                <g transform="matrix(1.29784,0,0,1.29784,-185.827,-87.335)">
                    <path d="M487.015,307.392L460.646,286.616L473.809,277.81L487.581,291.792L495.109,286.257L501.594,295.154L487.015,307.392Z" style="fill:rgb(191,191,191);fill-rule:nonzero;"/>
                </g>
                <g transform="matrix(1.29784,0,0,1.29784,-185.827,-87.335)">
                    <path d="M524.67,275.784L524.67,265.525L523.302,265.525L526.802,262.952L527.244,262.952L527.244,273.623L524.67,275.784Z" style="fill:rgb(16,48,57);fill-rule:nonzero;"/>
                </g>
                <g transform="matrix(1.29784,0,0,1.29784,-185.827,-87.335)">
                    <path d="M463.325,283.303L472.592,277.105L486.421,291.145L538.275,253.014L542.173,254.074L486.036,301.197L463.325,283.303Z" style="fill:rgb(140,173,129);fill-rule:nonzero;"/>
                </g>
                <g transform="matrix(1.29784,0,0,1.29784,-185.827,-87.335)">
                    <path d="M464.617,283.354L486.021,300.217L540.572,254.426L538.43,253.844L486.341,292.147L472.492,278.087L464.617,283.354ZM486.051,302.176L462.034,283.253L472.692,276.124L486.501,290.143L538.121,252.185L543.775,253.721L486.051,302.176Z" style="fill:rgb(118,175,61);fill-rule:nonzero;"/>
                </g>
                <g transform="matrix(1.29784,0,0,1.29784,-185.827,-87.335)">
                    <path d="M492.246,429.11L465.876,408.333L479.039,399.528L492.811,413.51L524.67,390.083L524.67,401.892L492.246,429.11ZM527.244,399.732L527.244,388.191L544.009,375.862L552.826,378.257L527.244,399.732Z" style="fill:rgb(191,191,191);fill-rule:nonzero;"/>
                </g>
                <g transform="matrix(1.29784,0,0,1.29784,-185.827,-87.335)">
                    <path d="M524.67,401.892L524.67,390.083L527.244,388.191L527.244,399.732L524.67,401.892Z" style="fill:rgb(16,48,57);fill-rule:nonzero;"/>
                </g>
                <g transform="matrix(1.29784,0,0,1.29784,-185.827,-87.335)">
                    <path d="M468.556,405.021L477.822,398.823L491.651,412.863L543.506,374.732L547.404,375.792L491.267,422.915L468.556,405.021Z" style="fill:rgb(140,173,129);fill-rule:nonzero;"/>
                </g>
                <g transform="matrix(1.29784,0,0,1.29784,-185.827,-87.335)">
                    <path d="M469.848,405.072L491.251,421.935L545.802,376.144L543.66,375.562L491.571,413.865L477.722,399.805L469.848,405.072ZM491.281,423.894L467.264,404.971L477.922,397.842L491.731,411.861L543.351,373.903L549.006,375.439L491.281,423.894Z" style="fill:rgb(118,175,61);fill-rule:nonzero;"/>
                </g>
                <g transform="matrix(1.29784,0,0,1.29784,-185.827,-87.335)">
                    <path d="M492.246,528.966L465.876,508.19L479.039,499.384L492.811,513.367L524.67,489.94L524.67,501.749L492.246,528.966ZM527.244,499.588L527.244,488.047L544.009,475.719L552.826,478.114L527.244,499.588Z" style="fill:rgb(191,191,191);fill-rule:nonzero;"/>
                </g>
                <g transform="matrix(1.29784,0,0,1.29784,-185.827,-87.335)">
                    <path d="M524.67,501.749L524.67,489.94L527.244,488.047L527.244,499.588L524.67,501.749Z" style="fill:rgb(16,48,57);fill-rule:nonzero;"/>
                </g>
                <g transform="matrix(1.29784,0,0,1.29784,-185.827,-87.335)">
                    <path d="M468.556,504.878L477.822,498.68L491.651,512.72L543.506,474.589L547.404,475.648L491.267,522.771L468.556,504.878Z" style="fill:rgb(140,173,129);fill-rule:nonzero;"/>
                </g>
                <g transform="matrix(1.29784,0,0,1.29784,-185.827,-87.335)">
                    <path d="M469.848,504.928L491.251,521.792L545.802,476L543.66,475.418L491.571,513.722L477.722,499.661L469.848,504.928ZM491.281,523.75L467.264,504.828L477.922,497.698L491.731,511.718L543.351,473.759L549.006,475.296L491.281,523.75Z" style="fill:rgb(118,175,61);fill-rule:nonzero;"/>
                </g>
                <g transform="matrix(1.29784,0,0,1.29784,-185.827,-87.335)">
                    <path d="M593.192,137.875C585.569,137.875 579.389,131.695 579.389,124.071C579.389,116.448 585.569,110.268 593.192,110.268C600.815,110.268 606.996,116.448 606.996,124.071C606.996,131.695 600.815,137.875 593.192,137.875ZM687.218,142.782L634.909,142.782L634.909,135.31C634.909,112.501 616.418,94.011 593.609,94.011L592.775,94.011C569.966,94.011 551.476,112.501 551.476,135.31L551.476,142.782L499.167,142.782C496.462,142.782 494.269,144.975 494.269,147.68L494.269,200.459C494.269,203.164 496.462,205.357 499.167,205.357L687.218,205.357C689.923,205.357 692.115,203.164 692.115,200.459L692.115,147.68C692.115,144.975 689.923,142.782 687.218,142.782Z" style="fill:rgb(146,146,146);fill-rule:nonzero;"/>
                </g>
                <g transform="matrix(1.29784,0,0,1.29784,-185.827,-87.335)">
                    <rect x="494.269" y="188.5" width="197.846" height="8.282" style="fill:rgb(183,183,183);fill-rule:nonzero;"/>
                </g>
                <g transform="matrix(1.29784,0,0,1.29784,-185.827,-87.335)">
                    <path d="M691.211,202.583L495.364,202.583C494.759,202.583 494.269,202.093 494.269,201.489L494.269,198.942L692.115,198.942L692.115,201.679C692.115,202.179 691.71,202.583 691.211,202.583Z" style="fill:rgb(183,183,183);fill-rule:nonzero;"/>
                </g>
            </g>
        </g>
    </g>
    <defs>
        <radialGradient id="_Radial2" cx="0" cy="0" r="1" gradientUnits="userSpaceOnUse" gradientTransform="matrix(328.72,0,0,328.72,375.378,337.687)"><stop offset="0" style="stop-color:rgb(177,192,202);stop-opacity:1"/><stop offset="1" style="stop-color:rgb(150,172,185);stop-opacity:1"/></radialGradient>
    </defs>
</svg>
